%TF.GenerationSoftware,KiCad,Pcbnew,5.1.9*%
%TF.CreationDate,2021-05-05T23:21:44-05:00*%
%TF.ProjectId,fanfanland,66616e66-616e-46c6-916e-642e6b696361,rev?*%
%TF.SameCoordinates,Original*%
%TF.FileFunction,Paste,Top*%
%TF.FilePolarity,Positive*%
%FSLAX46Y46*%
G04 Gerber Fmt 4.6, Leading zero omitted, Abs format (unit mm)*
G04 Created by KiCad (PCBNEW 5.1.9) date 2021-05-05 23:21:44*
%MOMM*%
%LPD*%
G01*
G04 APERTURE LIST*
%ADD10R,1.500000X0.600000*%
%ADD11R,0.800000X1.900000*%
%ADD12R,1.600000X2.000000*%
G04 APERTURE END LIST*
D10*
%TO.C,Q1*%
X56040000Y-49530000D03*
X56040000Y-50800000D03*
X56040000Y-52070000D03*
X56040000Y-53340000D03*
X56040000Y-54610000D03*
X56040000Y-55880000D03*
X56040000Y-57150000D03*
X50640000Y-57150000D03*
X50640000Y-55880000D03*
X50640000Y-54610000D03*
X50640000Y-53340000D03*
X50640000Y-52070000D03*
X50640000Y-50800000D03*
X50640000Y-49530000D03*
%TD*%
D11*
%TO.C,Q3*%
X53020000Y-63016000D03*
X51120000Y-63016000D03*
X52070000Y-66016000D03*
%TD*%
D12*
%TO.C,R1*%
X75184000Y-66516000D03*
X75184000Y-62516000D03*
%TD*%
%TO.C,R2*%
X77724000Y-66516000D03*
X77724000Y-62516000D03*
%TD*%
%TO.C,R3*%
X80264000Y-62516000D03*
X80264000Y-66516000D03*
%TD*%
%TO.C,R4*%
X72644000Y-66516000D03*
X72644000Y-62516000D03*
%TD*%
%TO.C,R5*%
X67056000Y-66516000D03*
X67056000Y-62516000D03*
%TD*%
%TO.C,R6*%
X58674000Y-57626000D03*
X58674000Y-53626000D03*
%TD*%
%TO.C,R7*%
X63754000Y-53626000D03*
X63754000Y-57626000D03*
%TD*%
%TO.C,R8*%
X66294000Y-57626000D03*
X66294000Y-53626000D03*
%TD*%
%TO.C,R9*%
X61214000Y-53626000D03*
X61214000Y-57626000D03*
%TD*%
%TO.C,R10*%
X64516000Y-66516000D03*
X64516000Y-62516000D03*
%TD*%
%TO.C,R11*%
X57912000Y-64706000D03*
X57912000Y-60706000D03*
%TD*%
%TO.C,R12*%
X55372000Y-61976000D03*
X55372000Y-65976000D03*
%TD*%
D11*
%TO.C,Q2*%
X61214000Y-66016000D03*
X60264000Y-63016000D03*
X62164000Y-63016000D03*
%TD*%
M02*
