M48
; DRILL file {KiCad 5.1.9} date Wed May  5 23:21:42 2021
; FORMAT={-:-/ absolute / metric / decimal}
; #@! TF.CreationDate,2021-05-05T23:21:42-05:00
; #@! TF.GenerationSoftware,Kicad,Pcbnew,5.1.9
; #@! TF.FileFunction,Plated,1,2,PTH
FMAT,2
METRIC
T1C0.400
T2C1.016
T3C1.098
%
G90
G05
T1
X52.324Y-57.15
X53.34Y-49.53
X55.372Y-59.69
X61.214Y-59.69
X63.754Y-59.69
X66.802Y-59.69
X67.818Y-60.452
X70.655Y-58.674
X70.655Y-60.452
X82.804Y-51.816
T2
X47.752Y-52.832
X47.752Y-55.372
X47.752Y-57.912
X47.752Y-60.452
X47.752Y-62.992
X47.752Y-65.532
X86.106Y-63.246
X86.106Y-65.786
T3
X48.275Y-69.215
X50.815Y-69.215
X53.355Y-69.215
X55.895Y-69.215
X58.435Y-48.895
X58.435Y-69.215
X60.975Y-48.895
X60.975Y-69.215
X63.515Y-48.895
X63.515Y-69.215
X66.055Y-48.895
X66.055Y-69.215
X68.595Y-48.895
X68.595Y-69.215
X71.135Y-48.895
X71.135Y-69.215
X73.675Y-48.895
X73.675Y-69.215
X76.215Y-48.895
X76.215Y-69.215
X78.755Y-48.895
X78.755Y-69.215
X81.295Y-48.895
X81.295Y-69.215
X83.835Y-48.895
X83.835Y-69.215
X86.106Y-52.07
X86.106Y-54.61
X86.106Y-57.15
X86.106Y-59.69
X86.375Y-48.895
X86.375Y-69.215
T0
M30
