%TF.GenerationSoftware,KiCad,Pcbnew,5.1.9*%
%TF.CreationDate,2021-05-05T23:21:44-05:00*%
%TF.ProjectId,fanfanland,66616e66-616e-46c6-916e-642e6b696361,rev?*%
%TF.SameCoordinates,Original*%
%TF.FileFunction,Copper,L1,Top*%
%TF.FilePolarity,Positive*%
%FSLAX46Y46*%
G04 Gerber Fmt 4.6, Leading zero omitted, Abs format (unit mm)*
G04 Created by KiCad (PCBNEW 5.1.9) date 2021-05-05 23:21:44*
%MOMM*%
%LPD*%
G01*
G04 APERTURE LIST*
%TA.AperFunction,ComponentPad*%
%ADD10O,1.524000X1.524000*%
%TD*%
%TA.AperFunction,ComponentPad*%
%ADD11C,1.748000*%
%TD*%
%TA.AperFunction,SMDPad,CuDef*%
%ADD12R,1.500000X0.600000*%
%TD*%
%TA.AperFunction,SMDPad,CuDef*%
%ADD13R,0.800000X1.900000*%
%TD*%
%TA.AperFunction,SMDPad,CuDef*%
%ADD14R,1.600000X2.000000*%
%TD*%
%TA.AperFunction,WasherPad*%
%ADD15C,3.556000*%
%TD*%
%TA.AperFunction,ViaPad*%
%ADD16C,0.800000*%
%TD*%
%TA.AperFunction,Conductor*%
%ADD17C,0.250000*%
%TD*%
G04 APERTURE END LIST*
D10*
%TO.P,J1,1*%
%TO.N,+9V*%
X86106000Y-63246000D03*
%TO.P,J1,2*%
%TO.N,GND*%
X86106000Y-65786000D03*
%TD*%
D11*
%TO.P,PS1,1*%
%TO.N,GND*%
X86106000Y-59690000D03*
%TO.P,PS1,2*%
%TO.N,+5V*%
X86106000Y-57150000D03*
%TO.P,PS1,3*%
%TO.N,+9V*%
X86106000Y-54610000D03*
%TO.P,PS1,4*%
%TO.N,N/C*%
X86106000Y-52070000D03*
%TD*%
D12*
%TO.P,Q1,14*%
%TO.N,GND*%
X56040000Y-49530000D03*
%TO.P,Q1,13*%
%TO.N,N/C*%
X56040000Y-50800000D03*
%TO.P,Q1,12*%
%TO.N,/Hi_Gate*%
X56040000Y-52070000D03*
%TO.P,Q1,11*%
%TO.N,/Hi*%
X56040000Y-53340000D03*
%TO.P,Q1,10*%
%TO.N,/Off*%
X56040000Y-54610000D03*
%TO.P,Q1,9*%
%TO.N,/Off_Gate*%
X56040000Y-55880000D03*
%TO.P,Q1,8*%
%TO.N,GND*%
X56040000Y-57150000D03*
%TO.P,Q1,7*%
X50640000Y-57150000D03*
%TO.P,Q1,6*%
%TO.N,/Low_Gate*%
X50640000Y-55880000D03*
%TO.P,Q1,5*%
%TO.N,/Low*%
X50640000Y-54610000D03*
%TO.P,Q1,4*%
%TO.N,/Med*%
X50640000Y-53340000D03*
%TO.P,Q1,3*%
%TO.N,/Med_Gate*%
X50640000Y-52070000D03*
%TO.P,Q1,2*%
%TO.N,N/C*%
X50640000Y-50800000D03*
%TO.P,Q1,1*%
%TO.N,GND*%
X50640000Y-49530000D03*
%TD*%
D13*
%TO.P,Q3,1*%
%TO.N,/Rev_Gate*%
X53020000Y-63016000D03*
%TO.P,Q3,2*%
%TO.N,GND*%
X51120000Y-63016000D03*
%TO.P,Q3,3*%
%TO.N,/Rev.*%
X52070000Y-66016000D03*
%TD*%
D14*
%TO.P,R1,1*%
%TO.N,/Hi_Gate*%
X75184000Y-66516000D03*
%TO.P,R1,2*%
%TO.N,/Hi_Pin*%
X75184000Y-62516000D03*
%TD*%
%TO.P,R2,2*%
%TO.N,/Low_Gate*%
X77724000Y-66516000D03*
%TO.P,R2,1*%
%TO.N,/Low_Pin*%
X77724000Y-62516000D03*
%TD*%
%TO.P,R3,1*%
%TO.N,/Med_Pin*%
X80264000Y-62516000D03*
%TO.P,R3,2*%
%TO.N,/Med_Gate*%
X80264000Y-66516000D03*
%TD*%
%TO.P,R4,1*%
%TO.N,/Off_Gate*%
X72644000Y-66516000D03*
%TO.P,R4,2*%
%TO.N,/Off_Pin*%
X72644000Y-62516000D03*
%TD*%
%TO.P,R5,2*%
%TO.N,/Light_G*%
X67056000Y-66516000D03*
%TO.P,R5,1*%
%TO.N,/Light_Pin*%
X67056000Y-62516000D03*
%TD*%
%TO.P,R6,2*%
%TO.N,GND*%
X58674000Y-57626000D03*
%TO.P,R6,1*%
%TO.N,/Off_Gate*%
X58674000Y-53626000D03*
%TD*%
%TO.P,R7,1*%
%TO.N,/Low_Gate*%
X63754000Y-53626000D03*
%TO.P,R7,2*%
%TO.N,GND*%
X63754000Y-57626000D03*
%TD*%
%TO.P,R8,2*%
%TO.N,GND*%
X66294000Y-57626000D03*
%TO.P,R8,1*%
%TO.N,/Med_Gate*%
X66294000Y-53626000D03*
%TD*%
%TO.P,R9,1*%
%TO.N,/Hi_Gate*%
X61214000Y-53626000D03*
%TO.P,R9,2*%
%TO.N,GND*%
X61214000Y-57626000D03*
%TD*%
%TO.P,R10,1*%
%TO.N,GND*%
X64516000Y-66516000D03*
%TO.P,R10,2*%
%TO.N,/Light_G*%
X64516000Y-62516000D03*
%TD*%
%TO.P,R11,2*%
%TO.N,/Rev_Gate*%
X57912000Y-64706000D03*
%TO.P,R11,1*%
%TO.N,/Rev_Pin*%
X57912000Y-60706000D03*
%TD*%
%TO.P,R12,1*%
%TO.N,/Rev_Gate*%
X55372000Y-61976000D03*
%TO.P,R12,2*%
%TO.N,GND*%
X55372000Y-65976000D03*
%TD*%
D15*
%TO.P,U1,*%
%TO.N,*%
X90185001Y-67945001D03*
X44465001Y-67945001D03*
X90185001Y-50165001D03*
X44465001Y-50165001D03*
D11*
%TO.P,U1,12*%
%TO.N,N/C*%
X58435001Y-48895001D03*
%TO.P,U1,11*%
X60975001Y-48895001D03*
%TO.P,U1,10*%
%TO.N,+5V*%
X63515001Y-48895001D03*
%TO.P,U1,9*%
%TO.N,/Rev_Pin*%
X66055001Y-48895001D03*
%TO.P,U1,8*%
%TO.N,/Light_Pin*%
X68595001Y-48895001D03*
%TO.P,U1,7*%
%TO.N,/Off_Pin*%
X71135001Y-48895001D03*
%TO.P,U1,6*%
%TO.N,/Hi_Pin*%
X73675001Y-48895001D03*
%TO.P,U1,5*%
%TO.N,/Low_Pin*%
X76215001Y-48895001D03*
%TO.P,U1,4*%
%TO.N,/Med_Pin*%
X78755001Y-48895001D03*
%TO.P,U1,3*%
%TO.N,N/C*%
X81295001Y-48895001D03*
%TO.P,U1,2*%
X83835001Y-48895001D03*
%TO.P,U1,1*%
X86375001Y-48895001D03*
%TO.P,U1,13*%
X86375001Y-69215001D03*
%TO.P,U1,14*%
X83835001Y-69215001D03*
%TO.P,U1,15*%
X81295001Y-69215001D03*
%TO.P,U1,16*%
X78755001Y-69215001D03*
%TO.P,U1,17*%
X76215001Y-69215001D03*
%TO.P,U1,18*%
X73675001Y-69215001D03*
%TO.P,U1,19*%
X71135001Y-69215001D03*
%TO.P,U1,20*%
X68595001Y-69215001D03*
%TO.P,U1,21*%
X66055001Y-69215001D03*
%TO.P,U1,22*%
X63515001Y-69215001D03*
%TO.P,U1,23*%
X60975001Y-69215001D03*
%TO.P,U1,24*%
X58435001Y-69215001D03*
%TO.P,U1,25*%
%TO.N,GND*%
X55895001Y-69215001D03*
%TO.P,U1,26*%
%TO.N,N/C*%
X53355001Y-69215001D03*
%TO.P,U1,27*%
X50815001Y-69215001D03*
%TO.P,U1,28*%
X48275001Y-69215001D03*
%TD*%
D10*
%TO.P,U2,1*%
%TO.N,/Med*%
X47752000Y-52832000D03*
%TO.P,U2,2*%
%TO.N,/Low*%
X47752000Y-55372000D03*
%TO.P,U2,3*%
%TO.N,/Hi*%
X47752000Y-57912000D03*
%TO.P,U2,4*%
%TO.N,/Off*%
X47752000Y-60452000D03*
%TO.P,U2,5*%
%TO.N,/Light*%
X47752000Y-62992000D03*
%TO.P,U2,6*%
%TO.N,/Rev.*%
X47752000Y-65532000D03*
%TD*%
D13*
%TO.P,Q2,3*%
%TO.N,/Light*%
X61214000Y-66016000D03*
%TO.P,Q2,2*%
%TO.N,GND*%
X60264000Y-63016000D03*
%TO.P,Q2,1*%
%TO.N,/Light_G*%
X62164000Y-63016000D03*
%TD*%
D16*
%TO.N,+5V*%
X82804000Y-51816000D03*
%TO.N,GND*%
X53340000Y-49530000D03*
X52324000Y-57150000D03*
X61214000Y-59690000D03*
X63754000Y-59690000D03*
X55372000Y-59690000D03*
%TO.N,/Light_Pin*%
X67818000Y-60452000D03*
X70655030Y-60452000D03*
%TO.N,/Rev_Pin*%
X66802000Y-59690000D03*
X70655030Y-58674000D03*
%TD*%
D17*
%TO.N,+5V*%
X84074000Y-56642000D02*
X84582000Y-57150000D01*
X84074000Y-53086000D02*
X84074000Y-56642000D01*
X84582000Y-57150000D02*
X86106000Y-57150000D01*
X82804000Y-51816000D02*
X84074000Y-53086000D01*
%TO.N,GND*%
X50640000Y-49530000D02*
X53340000Y-49530000D01*
X56040000Y-49530000D02*
X53340000Y-49530000D01*
X50640000Y-57150000D02*
X52324000Y-57150000D01*
X61214000Y-57626000D02*
X61214000Y-59690000D01*
X56516000Y-57626000D02*
X56040000Y-57150000D01*
X58674000Y-57626000D02*
X56516000Y-57626000D01*
X58674000Y-57626000D02*
X61214000Y-57626000D01*
X63754000Y-57626000D02*
X61214000Y-57626000D01*
X63754000Y-57626000D02*
X66294000Y-57626000D01*
X63754000Y-57626000D02*
X63754000Y-59690000D01*
X56040000Y-59022000D02*
X55372000Y-59690000D01*
X56040000Y-57150000D02*
X56040000Y-59022000D01*
X51120000Y-63016000D02*
X51120000Y-63566000D01*
X51120000Y-63566000D02*
X52070000Y-64516000D01*
X53912000Y-64516000D02*
X55372000Y-65976000D01*
X52070000Y-64516000D02*
X53912000Y-64516000D01*
X55372000Y-68692000D02*
X55895001Y-69215001D01*
X55372000Y-65976000D02*
X55372000Y-68692000D01*
X60264000Y-63016000D02*
X60264000Y-63566000D01*
X60264000Y-63566000D02*
X61214000Y-64516000D01*
X62516000Y-64516000D02*
X64516000Y-66516000D01*
X61214000Y-64516000D02*
X62516000Y-64516000D01*
X64516000Y-66516000D02*
X63532000Y-66516000D01*
X63532000Y-66516000D02*
X62484000Y-67564000D01*
X57546002Y-67564000D02*
X55895001Y-69215001D01*
X62484000Y-67564000D02*
X57546002Y-67564000D01*
%TO.N,+9V*%
X90678000Y-59722000D02*
X90678000Y-56642000D01*
X88646000Y-54610000D02*
X86106000Y-54610000D01*
X90678000Y-56642000D02*
X88646000Y-54610000D01*
X86106000Y-63246000D02*
X87376000Y-63246000D01*
X90678000Y-59944000D02*
X90678000Y-59722000D01*
X87376000Y-63246000D02*
X90678000Y-59944000D01*
%TO.N,/Hi_Gate*%
X61214000Y-53626000D02*
X61214000Y-53086000D01*
X60198000Y-52070000D02*
X56040000Y-52070000D01*
X61214000Y-53086000D02*
X60198000Y-52070000D01*
X75184000Y-65786000D02*
X75184000Y-66516000D01*
X74422000Y-65024000D02*
X75184000Y-65786000D01*
X69030010Y-64458010D02*
X69596000Y-65024000D01*
X69596000Y-65024000D02*
X74422000Y-65024000D01*
X69030010Y-56709600D02*
X69030010Y-64458010D01*
X67888421Y-55568011D02*
X69030010Y-56709600D01*
X63156010Y-55568010D02*
X67888421Y-55568011D01*
X61214000Y-53626000D02*
X63156010Y-55568010D01*
%TO.N,/Hi*%
X49391980Y-59551980D02*
X47752000Y-57912000D01*
X54102000Y-58547000D02*
X53097020Y-59551980D01*
X54102000Y-54278000D02*
X54102000Y-58547000D01*
X55040000Y-53340000D02*
X54102000Y-54278000D01*
X53097020Y-59551980D02*
X49391980Y-59551980D01*
X56040000Y-53340000D02*
X55040000Y-53340000D01*
%TO.N,/Off*%
X48202010Y-60001990D02*
X47752000Y-60452000D01*
X56040000Y-54610000D02*
X55040000Y-54610000D01*
X55040000Y-54610000D02*
X54610000Y-55040000D01*
X54610000Y-55040000D02*
X54610000Y-58675411D01*
X54610000Y-58675411D02*
X53283420Y-60001991D01*
X53283420Y-60001991D02*
X49279639Y-60001991D01*
X49279639Y-60001991D02*
X48829630Y-60452000D01*
X48829630Y-60452000D02*
X47752000Y-60452000D01*
%TO.N,/Off_Gate*%
X61066020Y-56018020D02*
X67564000Y-56018020D01*
X58674000Y-53626000D02*
X61066020Y-56018020D01*
X67564000Y-56018020D02*
X67702020Y-56018020D01*
X67702020Y-56018020D02*
X68580000Y-56896000D01*
X68580000Y-56896000D02*
X68580000Y-65278000D01*
X68580000Y-65278000D02*
X69596000Y-66294000D01*
X72644000Y-66516000D02*
X69818000Y-66516000D01*
X69818000Y-66516000D02*
X69596000Y-66294000D01*
X58674000Y-53626000D02*
X58674000Y-55118000D01*
X57912000Y-55880000D02*
X56040000Y-55880000D01*
X58674000Y-55118000D02*
X57912000Y-55880000D01*
%TO.N,/Low_Gate*%
X63754000Y-53626000D02*
X61572999Y-51444999D01*
X55029999Y-51444999D02*
X53594000Y-52880998D01*
X61572999Y-51444999D02*
X55029999Y-51444999D01*
X53594000Y-52880998D02*
X53594000Y-54864000D01*
X52578000Y-55880000D02*
X50640000Y-55880000D01*
X53594000Y-54864000D02*
X52578000Y-55880000D01*
X64516000Y-55118000D02*
X67564000Y-55118000D01*
X63754000Y-54356000D02*
X64516000Y-55118000D01*
X63754000Y-53626000D02*
X63754000Y-54356000D01*
X68074822Y-55118002D02*
X69480020Y-56523200D01*
X67564000Y-55118000D02*
X68074822Y-55118002D01*
X69480020Y-64146020D02*
X69907990Y-64573990D01*
X69480020Y-56523200D02*
X69480020Y-64146020D01*
X75781990Y-64573990D02*
X77724000Y-66516000D01*
X69907990Y-64573990D02*
X75781990Y-64573990D01*
%TO.N,/Low*%
X48514000Y-54610000D02*
X50640000Y-54610000D01*
X47752000Y-55372000D02*
X48514000Y-54610000D01*
%TO.N,/Med*%
X47752000Y-52832000D02*
X48260000Y-53340000D01*
X48260000Y-53340000D02*
X50640000Y-53340000D01*
%TO.N,/Med_Gate*%
X66294000Y-53626000D02*
X63662989Y-50994989D01*
X63662989Y-50994989D02*
X58360989Y-50994989D01*
X58360989Y-50994989D02*
X57521001Y-50155001D01*
X57521001Y-50155001D02*
X54746999Y-50155001D01*
X52832000Y-52070000D02*
X50640000Y-52070000D01*
X54746999Y-50155001D02*
X52832000Y-52070000D01*
X67219230Y-53626000D02*
X69930030Y-56336800D01*
X66294000Y-53626000D02*
X67219230Y-53626000D01*
X69930030Y-63834030D02*
X70219980Y-64123980D01*
X69930030Y-56336800D02*
X69930030Y-63834030D01*
X70219980Y-64123980D02*
X79109980Y-64123980D01*
X80264000Y-65278000D02*
X80264000Y-66516000D01*
X79109980Y-64123980D02*
X80264000Y-65278000D01*
%TO.N,/Light*%
X59309000Y-65278000D02*
X60047000Y-66016000D01*
X59309000Y-63627000D02*
X59309000Y-65278000D01*
X58698000Y-63016000D02*
X59309000Y-63627000D01*
X56642000Y-61976000D02*
X57682000Y-63016000D01*
X56642000Y-60706000D02*
X56642000Y-61976000D01*
X60047000Y-66016000D02*
X61214000Y-66016000D01*
X56388000Y-60452000D02*
X56642000Y-60706000D01*
X51054000Y-60452000D02*
X56388000Y-60452000D01*
X48514000Y-62992000D02*
X51054000Y-60452000D01*
X57682000Y-63016000D02*
X58698000Y-63016000D01*
X47752000Y-62992000D02*
X48514000Y-62992000D01*
%TO.N,/Light_G*%
X67056000Y-66516000D02*
X67056000Y-65532000D01*
X64516000Y-62992000D02*
X64516000Y-62516000D01*
X67056000Y-65532000D02*
X64516000Y-62992000D01*
X64016000Y-63016000D02*
X64516000Y-62516000D01*
X62164000Y-63016000D02*
X64016000Y-63016000D01*
%TO.N,/Rev_Gate*%
X53020000Y-63016000D02*
X53020000Y-62804000D01*
X53848000Y-61976000D02*
X55372000Y-61976000D01*
X53020000Y-62804000D02*
X53848000Y-61976000D01*
X57912000Y-64516000D02*
X55372000Y-61976000D01*
X57912000Y-64706000D02*
X57912000Y-64516000D01*
%TO.N,/Rev.*%
X48236000Y-66016000D02*
X47752000Y-65532000D01*
X52070000Y-66016000D02*
X48236000Y-66016000D01*
%TO.N,/Hi_Pin*%
X75184000Y-62516000D02*
X75184000Y-58166000D01*
X73675001Y-56657001D02*
X73675001Y-48895001D01*
X75184000Y-58166000D02*
X73675001Y-56657001D01*
%TO.N,/Low_Pin*%
X77724000Y-62516000D02*
X77724000Y-58166000D01*
X76215001Y-56657001D02*
X76215001Y-48895001D01*
X77724000Y-58166000D02*
X76215001Y-56657001D01*
%TO.N,/Med_Pin*%
X80264000Y-62516000D02*
X80264000Y-58166000D01*
X78755001Y-56657001D02*
X78755001Y-48895001D01*
X80264000Y-58166000D02*
X78755001Y-56657001D01*
%TO.N,/Off_Pin*%
X71135001Y-54809179D02*
X71135001Y-48895001D01*
X71824009Y-55498187D02*
X71135001Y-54809179D01*
X71824010Y-56330010D02*
X71824009Y-55498187D01*
X71830041Y-59638041D02*
X71830041Y-56336041D01*
X71830041Y-56336041D02*
X71824010Y-56330010D01*
X72644000Y-60452000D02*
X71830041Y-59638041D01*
X72644000Y-62516000D02*
X72644000Y-60452000D01*
%TO.N,/Light_Pin*%
X67056000Y-61214000D02*
X67818000Y-60452000D01*
X67056000Y-62516000D02*
X67056000Y-61214000D01*
X71380031Y-59726999D02*
X71380031Y-57410031D01*
X70655030Y-60452000D02*
X71380031Y-59726999D01*
X71380031Y-57410031D02*
X71374000Y-57404000D01*
X71374000Y-57404000D02*
X71374000Y-55684588D01*
X71374000Y-55684588D02*
X68580000Y-52890588D01*
X68580000Y-48910002D02*
X68595001Y-48895001D01*
X68580000Y-52890588D02*
X68580000Y-48910002D01*
%TO.N,/Rev_Pin*%
X65786000Y-60706000D02*
X66802000Y-59690000D01*
X57912000Y-60706000D02*
X65786000Y-60706000D01*
X70655030Y-55602028D02*
X66040000Y-50986998D01*
X70655030Y-58674000D02*
X70655030Y-55602028D01*
X66040000Y-48910002D02*
X66055001Y-48895001D01*
X66040000Y-50986998D02*
X66040000Y-48910002D01*
%TD*%
M02*
