%TF.GenerationSoftware,KiCad,Pcbnew,5.1.9*%
%TF.CreationDate,2021-05-05T23:21:44-05:00*%
%TF.ProjectId,fanfanland,66616e66-616e-46c6-916e-642e6b696361,rev?*%
%TF.SameCoordinates,Original*%
%TF.FileFunction,Soldermask,Bot*%
%TF.FilePolarity,Negative*%
%FSLAX46Y46*%
G04 Gerber Fmt 4.6, Leading zero omitted, Abs format (unit mm)*
G04 Created by KiCad (PCBNEW 5.1.9) date 2021-05-05 23:21:44*
%MOMM*%
%LPD*%
G01*
G04 APERTURE LIST*
%ADD10R,2.000000X1.600000*%
%ADD11O,1.524000X1.524000*%
%ADD12C,1.748000*%
%ADD13C,3.556000*%
G04 APERTURE END LIST*
D10*
%TO.C,C1*%
X63468000Y-51816000D03*
X59468000Y-51816000D03*
%TD*%
D11*
%TO.C,J1*%
X86106000Y-63246000D03*
X86106000Y-65786000D03*
%TD*%
D12*
%TO.C,PS1*%
X86106000Y-59690000D03*
X86106000Y-57150000D03*
X86106000Y-54610000D03*
X86106000Y-52070000D03*
%TD*%
D13*
%TO.C,U1*%
X90185001Y-67945001D03*
X44465001Y-67945001D03*
X90185001Y-50165001D03*
X44465001Y-50165001D03*
D12*
X58435001Y-48895001D03*
X60975001Y-48895001D03*
X63515001Y-48895001D03*
X66055001Y-48895001D03*
X68595001Y-48895001D03*
X71135001Y-48895001D03*
X73675001Y-48895001D03*
X76215001Y-48895001D03*
X78755001Y-48895001D03*
X81295001Y-48895001D03*
X83835001Y-48895001D03*
X86375001Y-48895001D03*
X86375001Y-69215001D03*
X83835001Y-69215001D03*
X81295001Y-69215001D03*
X78755001Y-69215001D03*
X76215001Y-69215001D03*
X73675001Y-69215001D03*
X71135001Y-69215001D03*
X68595001Y-69215001D03*
X66055001Y-69215001D03*
X63515001Y-69215001D03*
X60975001Y-69215001D03*
X58435001Y-69215001D03*
X55895001Y-69215001D03*
X53355001Y-69215001D03*
X50815001Y-69215001D03*
X48275001Y-69215001D03*
%TD*%
D11*
%TO.C,U2*%
X47752000Y-52832000D03*
X47752000Y-55372000D03*
X47752000Y-57912000D03*
X47752000Y-60452000D03*
X47752000Y-62992000D03*
X47752000Y-65532000D03*
%TD*%
M02*
