%TF.GenerationSoftware,KiCad,Pcbnew,5.1.9*%
%TF.CreationDate,2021-05-05T23:21:44-05:00*%
%TF.ProjectId,fanfanland,66616e66-616e-46c6-916e-642e6b696361,rev?*%
%TF.SameCoordinates,Original*%
%TF.FileFunction,Copper,L2,Bot*%
%TF.FilePolarity,Positive*%
%FSLAX46Y46*%
G04 Gerber Fmt 4.6, Leading zero omitted, Abs format (unit mm)*
G04 Created by KiCad (PCBNEW 5.1.9) date 2021-05-05 23:21:44*
%MOMM*%
%LPD*%
G01*
G04 APERTURE LIST*
%TA.AperFunction,SMDPad,CuDef*%
%ADD10R,2.000000X1.600000*%
%TD*%
%TA.AperFunction,ComponentPad*%
%ADD11O,1.524000X1.524000*%
%TD*%
%TA.AperFunction,ComponentPad*%
%ADD12C,1.748000*%
%TD*%
%TA.AperFunction,WasherPad*%
%ADD13C,3.556000*%
%TD*%
%TA.AperFunction,ViaPad*%
%ADD14C,0.800000*%
%TD*%
%TA.AperFunction,Conductor*%
%ADD15C,0.250000*%
%TD*%
%TA.AperFunction,Conductor*%
%ADD16C,0.254000*%
%TD*%
%TA.AperFunction,Conductor*%
%ADD17C,0.100000*%
%TD*%
G04 APERTURE END LIST*
D10*
%TO.P,C1,2*%
%TO.N,+5V*%
X63468000Y-51816000D03*
%TO.P,C1,1*%
%TO.N,GND*%
X59468000Y-51816000D03*
%TD*%
D11*
%TO.P,J1,1*%
%TO.N,+9V*%
X86106000Y-63246000D03*
%TO.P,J1,2*%
%TO.N,GND*%
X86106000Y-65786000D03*
%TD*%
D12*
%TO.P,PS1,1*%
%TO.N,GND*%
X86106000Y-59690000D03*
%TO.P,PS1,2*%
%TO.N,+5V*%
X86106000Y-57150000D03*
%TO.P,PS1,3*%
%TO.N,+9V*%
X86106000Y-54610000D03*
%TO.P,PS1,4*%
%TO.N,N/C*%
X86106000Y-52070000D03*
%TD*%
D13*
%TO.P,U1,*%
%TO.N,*%
X90185001Y-67945001D03*
X44465001Y-67945001D03*
X90185001Y-50165001D03*
X44465001Y-50165001D03*
D12*
%TO.P,U1,12*%
%TO.N,N/C*%
X58435001Y-48895001D03*
%TO.P,U1,11*%
X60975001Y-48895001D03*
%TO.P,U1,10*%
%TO.N,+5V*%
X63515001Y-48895001D03*
%TO.P,U1,9*%
%TO.N,/Rev_Pin*%
X66055001Y-48895001D03*
%TO.P,U1,8*%
%TO.N,/Light_Pin*%
X68595001Y-48895001D03*
%TO.P,U1,7*%
%TO.N,/Off_Pin*%
X71135001Y-48895001D03*
%TO.P,U1,6*%
%TO.N,/Hi_Pin*%
X73675001Y-48895001D03*
%TO.P,U1,5*%
%TO.N,/Low_Pin*%
X76215001Y-48895001D03*
%TO.P,U1,4*%
%TO.N,/Med_Pin*%
X78755001Y-48895001D03*
%TO.P,U1,3*%
%TO.N,N/C*%
X81295001Y-48895001D03*
%TO.P,U1,2*%
X83835001Y-48895001D03*
%TO.P,U1,1*%
X86375001Y-48895001D03*
%TO.P,U1,13*%
X86375001Y-69215001D03*
%TO.P,U1,14*%
X83835001Y-69215001D03*
%TO.P,U1,15*%
X81295001Y-69215001D03*
%TO.P,U1,16*%
X78755001Y-69215001D03*
%TO.P,U1,17*%
X76215001Y-69215001D03*
%TO.P,U1,18*%
X73675001Y-69215001D03*
%TO.P,U1,19*%
X71135001Y-69215001D03*
%TO.P,U1,20*%
X68595001Y-69215001D03*
%TO.P,U1,21*%
X66055001Y-69215001D03*
%TO.P,U1,22*%
X63515001Y-69215001D03*
%TO.P,U1,23*%
X60975001Y-69215001D03*
%TO.P,U1,24*%
X58435001Y-69215001D03*
%TO.P,U1,25*%
%TO.N,GND*%
X55895001Y-69215001D03*
%TO.P,U1,26*%
%TO.N,N/C*%
X53355001Y-69215001D03*
%TO.P,U1,27*%
X50815001Y-69215001D03*
%TO.P,U1,28*%
X48275001Y-69215001D03*
%TD*%
D11*
%TO.P,U2,1*%
%TO.N,/Med*%
X47752000Y-52832000D03*
%TO.P,U2,2*%
%TO.N,/Low*%
X47752000Y-55372000D03*
%TO.P,U2,3*%
%TO.N,/Hi*%
X47752000Y-57912000D03*
%TO.P,U2,4*%
%TO.N,/Off*%
X47752000Y-60452000D03*
%TO.P,U2,5*%
%TO.N,/Light*%
X47752000Y-62992000D03*
%TO.P,U2,6*%
%TO.N,/Rev.*%
X47752000Y-65532000D03*
%TD*%
D14*
%TO.N,+5V*%
X82804000Y-51816000D03*
%TO.N,GND*%
X53340000Y-49530000D03*
X52324000Y-57150000D03*
X61214000Y-59690000D03*
X63754000Y-59690000D03*
X55372000Y-59690000D03*
%TO.N,/Light_Pin*%
X67818000Y-60452000D03*
X70655030Y-60452000D03*
%TO.N,/Rev_Pin*%
X66802000Y-59690000D03*
X70655030Y-58674000D03*
%TD*%
D15*
%TO.N,+5V*%
X63532000Y-48912000D02*
X63515001Y-48895001D01*
X63532000Y-51816000D02*
X63532000Y-48912000D01*
X72390000Y-50292000D02*
X81280000Y-50292000D01*
X64912000Y-50292000D02*
X72390000Y-50292000D01*
X63515001Y-48895001D02*
X64912000Y-50292000D01*
X81280000Y-50292000D02*
X82804000Y-51816000D01*
%TO.N,/Light_Pin*%
X67818000Y-60452000D02*
X70655030Y-60452000D01*
%TO.N,/Rev_Pin*%
X69639030Y-59690000D02*
X70655030Y-58674000D01*
X66802000Y-59690000D02*
X69639030Y-59690000D01*
%TD*%
D16*
%TO.N,GND*%
X56983991Y-48454842D02*
X56926001Y-48746378D01*
X56926001Y-49043624D01*
X56983991Y-49335160D01*
X57097743Y-49609780D01*
X57262884Y-49856932D01*
X57473070Y-50067118D01*
X57720222Y-50232259D01*
X57994842Y-50346011D01*
X58286378Y-50404001D01*
X58297983Y-50404001D01*
X58223820Y-50426498D01*
X58113506Y-50485463D01*
X58016815Y-50564815D01*
X57937463Y-50661506D01*
X57878498Y-50771820D01*
X57842188Y-50891518D01*
X57829928Y-51016000D01*
X57833000Y-51530250D01*
X57991750Y-51689000D01*
X59341000Y-51689000D01*
X59341000Y-50539750D01*
X59595000Y-50539750D01*
X59595000Y-51689000D01*
X60944250Y-51689000D01*
X61103000Y-51530250D01*
X61106072Y-51016000D01*
X61093812Y-50891518D01*
X61057502Y-50771820D01*
X60998537Y-50661506D01*
X60919185Y-50564815D01*
X60822494Y-50485463D01*
X60712180Y-50426498D01*
X60592482Y-50390188D01*
X60468000Y-50377928D01*
X59753750Y-50381000D01*
X59595000Y-50539750D01*
X59341000Y-50539750D01*
X59182250Y-50381000D01*
X58709481Y-50378967D01*
X58875160Y-50346011D01*
X59149780Y-50232259D01*
X59396932Y-50067118D01*
X59607118Y-49856932D01*
X59705001Y-49710439D01*
X59802884Y-49856932D01*
X60013070Y-50067118D01*
X60260222Y-50232259D01*
X60534842Y-50346011D01*
X60826378Y-50404001D01*
X61123624Y-50404001D01*
X61415160Y-50346011D01*
X61689780Y-50232259D01*
X61936932Y-50067118D01*
X62147118Y-49856932D01*
X62245001Y-49710439D01*
X62342884Y-49856932D01*
X62553070Y-50067118D01*
X62772001Y-50213402D01*
X62772000Y-50377928D01*
X62468000Y-50377928D01*
X62343518Y-50390188D01*
X62223820Y-50426498D01*
X62113506Y-50485463D01*
X62016815Y-50564815D01*
X61937463Y-50661506D01*
X61878498Y-50771820D01*
X61842188Y-50891518D01*
X61829928Y-51016000D01*
X61829928Y-52616000D01*
X61842188Y-52740482D01*
X61878498Y-52860180D01*
X61937463Y-52970494D01*
X62016815Y-53067185D01*
X62113506Y-53146537D01*
X62223820Y-53205502D01*
X62343518Y-53241812D01*
X62468000Y-53254072D01*
X64468000Y-53254072D01*
X64592482Y-53241812D01*
X64712180Y-53205502D01*
X64822494Y-53146537D01*
X64919185Y-53067185D01*
X64998537Y-52970494D01*
X65057502Y-52860180D01*
X65093812Y-52740482D01*
X65106072Y-52616000D01*
X65106072Y-51052000D01*
X80965199Y-51052000D01*
X81769000Y-51855802D01*
X81769000Y-51917939D01*
X81808774Y-52117898D01*
X81886795Y-52306256D01*
X82000063Y-52475774D01*
X82144226Y-52619937D01*
X82313744Y-52733205D01*
X82502102Y-52811226D01*
X82702061Y-52851000D01*
X82905939Y-52851000D01*
X83105898Y-52811226D01*
X83294256Y-52733205D01*
X83463774Y-52619937D01*
X83607937Y-52475774D01*
X83721205Y-52306256D01*
X83799226Y-52117898D01*
X83838316Y-51921377D01*
X84597000Y-51921377D01*
X84597000Y-52218623D01*
X84654990Y-52510159D01*
X84768742Y-52784779D01*
X84933883Y-53031931D01*
X85144069Y-53242117D01*
X85290562Y-53340000D01*
X85144069Y-53437883D01*
X84933883Y-53648069D01*
X84768742Y-53895221D01*
X84654990Y-54169841D01*
X84597000Y-54461377D01*
X84597000Y-54758623D01*
X84654990Y-55050159D01*
X84768742Y-55324779D01*
X84933883Y-55571931D01*
X85144069Y-55782117D01*
X85290562Y-55880000D01*
X85144069Y-55977883D01*
X84933883Y-56188069D01*
X84768742Y-56435221D01*
X84654990Y-56709841D01*
X84597000Y-57001377D01*
X84597000Y-57298623D01*
X84654990Y-57590159D01*
X84768742Y-57864779D01*
X84933883Y-58111931D01*
X85144069Y-58322117D01*
X85308185Y-58431776D01*
X85240079Y-58644474D01*
X86106000Y-59510395D01*
X86971921Y-58644474D01*
X86903815Y-58431776D01*
X87067931Y-58322117D01*
X87278117Y-58111931D01*
X87443258Y-57864779D01*
X87557010Y-57590159D01*
X87615000Y-57298623D01*
X87615000Y-57001377D01*
X87557010Y-56709841D01*
X87443258Y-56435221D01*
X87278117Y-56188069D01*
X87067931Y-55977883D01*
X86921438Y-55880000D01*
X87067931Y-55782117D01*
X87278117Y-55571931D01*
X87443258Y-55324779D01*
X87557010Y-55050159D01*
X87615000Y-54758623D01*
X87615000Y-54461377D01*
X87557010Y-54169841D01*
X87443258Y-53895221D01*
X87278117Y-53648069D01*
X87067931Y-53437883D01*
X86921438Y-53340000D01*
X87067931Y-53242117D01*
X87278117Y-53031931D01*
X87443258Y-52784779D01*
X87557010Y-52510159D01*
X87615000Y-52218623D01*
X87615000Y-51921377D01*
X87557010Y-51629841D01*
X87443258Y-51355221D01*
X87278117Y-51108069D01*
X87067931Y-50897883D01*
X86820779Y-50732742D01*
X86546159Y-50618990D01*
X86254623Y-50561000D01*
X85957377Y-50561000D01*
X85665841Y-50618990D01*
X85391221Y-50732742D01*
X85144069Y-50897883D01*
X84933883Y-51108069D01*
X84768742Y-51355221D01*
X84654990Y-51629841D01*
X84597000Y-51921377D01*
X83838316Y-51921377D01*
X83839000Y-51917939D01*
X83839000Y-51714061D01*
X83799226Y-51514102D01*
X83721205Y-51325744D01*
X83607937Y-51156226D01*
X83463774Y-51012063D01*
X83294256Y-50898795D01*
X83105898Y-50820774D01*
X82905939Y-50781000D01*
X82843802Y-50781000D01*
X82180793Y-50117992D01*
X82256932Y-50067118D01*
X82467118Y-49856932D01*
X82565001Y-49710439D01*
X82662884Y-49856932D01*
X82873070Y-50067118D01*
X83120222Y-50232259D01*
X83394842Y-50346011D01*
X83686378Y-50404001D01*
X83983624Y-50404001D01*
X84275160Y-50346011D01*
X84549780Y-50232259D01*
X84796932Y-50067118D01*
X85007118Y-49856932D01*
X85105001Y-49710439D01*
X85202884Y-49856932D01*
X85413070Y-50067118D01*
X85660222Y-50232259D01*
X85934842Y-50346011D01*
X86226378Y-50404001D01*
X86523624Y-50404001D01*
X86815160Y-50346011D01*
X87089780Y-50232259D01*
X87336932Y-50067118D01*
X87547118Y-49856932D01*
X87712259Y-49609780D01*
X87826011Y-49335160D01*
X87884001Y-49043624D01*
X87884001Y-48746378D01*
X87826011Y-48454842D01*
X87755660Y-48285000D01*
X88655337Y-48285000D01*
X88646803Y-48290702D01*
X88310702Y-48626803D01*
X88046629Y-49022017D01*
X87864732Y-49461155D01*
X87772001Y-49927341D01*
X87772001Y-50402661D01*
X87864732Y-50868847D01*
X88046629Y-51307985D01*
X88310702Y-51703199D01*
X88646803Y-52039300D01*
X89042017Y-52303373D01*
X89481155Y-52485270D01*
X89947341Y-52578001D01*
X90422661Y-52578001D01*
X90888847Y-52485270D01*
X91327985Y-52303373D01*
X91723199Y-52039300D01*
X92050001Y-51712498D01*
X92050000Y-66397503D01*
X91723199Y-66070702D01*
X91327985Y-65806629D01*
X90888847Y-65624732D01*
X90422661Y-65532001D01*
X89947341Y-65532001D01*
X89481155Y-65624732D01*
X89042017Y-65806629D01*
X88646803Y-66070702D01*
X88310702Y-66406803D01*
X88046629Y-66802017D01*
X87864732Y-67241155D01*
X87772001Y-67707341D01*
X87772001Y-68182661D01*
X87864732Y-68648847D01*
X88046629Y-69087985D01*
X88310702Y-69483199D01*
X88646803Y-69819300D01*
X88655334Y-69825000D01*
X87755661Y-69825000D01*
X87826011Y-69655160D01*
X87884001Y-69363624D01*
X87884001Y-69066378D01*
X87826011Y-68774842D01*
X87712259Y-68500222D01*
X87547118Y-68253070D01*
X87336932Y-68042884D01*
X87089780Y-67877743D01*
X86815160Y-67763991D01*
X86523624Y-67706001D01*
X86226378Y-67706001D01*
X85934842Y-67763991D01*
X85660222Y-67877743D01*
X85413070Y-68042884D01*
X85202884Y-68253070D01*
X85105001Y-68399563D01*
X85007118Y-68253070D01*
X84796932Y-68042884D01*
X84549780Y-67877743D01*
X84275160Y-67763991D01*
X83983624Y-67706001D01*
X83686378Y-67706001D01*
X83394842Y-67763991D01*
X83120222Y-67877743D01*
X82873070Y-68042884D01*
X82662884Y-68253070D01*
X82565001Y-68399563D01*
X82467118Y-68253070D01*
X82256932Y-68042884D01*
X82009780Y-67877743D01*
X81735160Y-67763991D01*
X81443624Y-67706001D01*
X81146378Y-67706001D01*
X80854842Y-67763991D01*
X80580222Y-67877743D01*
X80333070Y-68042884D01*
X80122884Y-68253070D01*
X80025001Y-68399563D01*
X79927118Y-68253070D01*
X79716932Y-68042884D01*
X79469780Y-67877743D01*
X79195160Y-67763991D01*
X78903624Y-67706001D01*
X78606378Y-67706001D01*
X78314842Y-67763991D01*
X78040222Y-67877743D01*
X77793070Y-68042884D01*
X77582884Y-68253070D01*
X77485001Y-68399563D01*
X77387118Y-68253070D01*
X77176932Y-68042884D01*
X76929780Y-67877743D01*
X76655160Y-67763991D01*
X76363624Y-67706001D01*
X76066378Y-67706001D01*
X75774842Y-67763991D01*
X75500222Y-67877743D01*
X75253070Y-68042884D01*
X75042884Y-68253070D01*
X74945001Y-68399563D01*
X74847118Y-68253070D01*
X74636932Y-68042884D01*
X74389780Y-67877743D01*
X74115160Y-67763991D01*
X73823624Y-67706001D01*
X73526378Y-67706001D01*
X73234842Y-67763991D01*
X72960222Y-67877743D01*
X72713070Y-68042884D01*
X72502884Y-68253070D01*
X72405001Y-68399563D01*
X72307118Y-68253070D01*
X72096932Y-68042884D01*
X71849780Y-67877743D01*
X71575160Y-67763991D01*
X71283624Y-67706001D01*
X70986378Y-67706001D01*
X70694842Y-67763991D01*
X70420222Y-67877743D01*
X70173070Y-68042884D01*
X69962884Y-68253070D01*
X69865001Y-68399563D01*
X69767118Y-68253070D01*
X69556932Y-68042884D01*
X69309780Y-67877743D01*
X69035160Y-67763991D01*
X68743624Y-67706001D01*
X68446378Y-67706001D01*
X68154842Y-67763991D01*
X67880222Y-67877743D01*
X67633070Y-68042884D01*
X67422884Y-68253070D01*
X67325001Y-68399563D01*
X67227118Y-68253070D01*
X67016932Y-68042884D01*
X66769780Y-67877743D01*
X66495160Y-67763991D01*
X66203624Y-67706001D01*
X65906378Y-67706001D01*
X65614842Y-67763991D01*
X65340222Y-67877743D01*
X65093070Y-68042884D01*
X64882884Y-68253070D01*
X64785001Y-68399563D01*
X64687118Y-68253070D01*
X64476932Y-68042884D01*
X64229780Y-67877743D01*
X63955160Y-67763991D01*
X63663624Y-67706001D01*
X63366378Y-67706001D01*
X63074842Y-67763991D01*
X62800222Y-67877743D01*
X62553070Y-68042884D01*
X62342884Y-68253070D01*
X62245001Y-68399563D01*
X62147118Y-68253070D01*
X61936932Y-68042884D01*
X61689780Y-67877743D01*
X61415160Y-67763991D01*
X61123624Y-67706001D01*
X60826378Y-67706001D01*
X60534842Y-67763991D01*
X60260222Y-67877743D01*
X60013070Y-68042884D01*
X59802884Y-68253070D01*
X59705001Y-68399563D01*
X59607118Y-68253070D01*
X59396932Y-68042884D01*
X59149780Y-67877743D01*
X58875160Y-67763991D01*
X58583624Y-67706001D01*
X58286378Y-67706001D01*
X57994842Y-67763991D01*
X57720222Y-67877743D01*
X57473070Y-68042884D01*
X57262884Y-68253070D01*
X57153225Y-68417186D01*
X56940527Y-68349080D01*
X56074606Y-69215001D01*
X56088749Y-69229144D01*
X55909144Y-69408749D01*
X55895001Y-69394606D01*
X55880859Y-69408749D01*
X55701254Y-69229144D01*
X55715396Y-69215001D01*
X54849475Y-68349080D01*
X54636777Y-68417186D01*
X54527118Y-68253070D01*
X54443523Y-68169475D01*
X55029080Y-68169475D01*
X55895001Y-69035396D01*
X56760922Y-68169475D01*
X56680383Y-67917949D01*
X56412250Y-67789651D01*
X56124239Y-67716128D01*
X55827419Y-67700206D01*
X55533196Y-67742497D01*
X55252877Y-67841375D01*
X55109619Y-67917949D01*
X55029080Y-68169475D01*
X54443523Y-68169475D01*
X54316932Y-68042884D01*
X54069780Y-67877743D01*
X53795160Y-67763991D01*
X53503624Y-67706001D01*
X53206378Y-67706001D01*
X52914842Y-67763991D01*
X52640222Y-67877743D01*
X52393070Y-68042884D01*
X52182884Y-68253070D01*
X52085001Y-68399563D01*
X51987118Y-68253070D01*
X51776932Y-68042884D01*
X51529780Y-67877743D01*
X51255160Y-67763991D01*
X50963624Y-67706001D01*
X50666378Y-67706001D01*
X50374842Y-67763991D01*
X50100222Y-67877743D01*
X49853070Y-68042884D01*
X49642884Y-68253070D01*
X49545001Y-68399563D01*
X49447118Y-68253070D01*
X49236932Y-68042884D01*
X48989780Y-67877743D01*
X48715160Y-67763991D01*
X48423624Y-67706001D01*
X48126378Y-67706001D01*
X47834842Y-67763991D01*
X47560222Y-67877743D01*
X47313070Y-68042884D01*
X47102884Y-68253070D01*
X46937743Y-68500222D01*
X46823991Y-68774842D01*
X46766001Y-69066378D01*
X46766001Y-69363624D01*
X46823991Y-69655160D01*
X46894341Y-69825000D01*
X45994668Y-69825000D01*
X46003199Y-69819300D01*
X46339300Y-69483199D01*
X46603373Y-69087985D01*
X46785270Y-68648847D01*
X46878001Y-68182661D01*
X46878001Y-67707341D01*
X46785270Y-67241155D01*
X46603373Y-66802017D01*
X46339300Y-66406803D01*
X46003199Y-66070702D01*
X45607985Y-65806629D01*
X45168847Y-65624732D01*
X44702661Y-65532001D01*
X44227341Y-65532001D01*
X43761155Y-65624732D01*
X43322017Y-65806629D01*
X42926803Y-66070702D01*
X42590702Y-66406803D01*
X42570000Y-66437786D01*
X42570000Y-52694408D01*
X46355000Y-52694408D01*
X46355000Y-52969592D01*
X46408686Y-53239490D01*
X46513995Y-53493727D01*
X46666880Y-53722535D01*
X46861465Y-53917120D01*
X47090273Y-54070005D01*
X47167515Y-54102000D01*
X47090273Y-54133995D01*
X46861465Y-54286880D01*
X46666880Y-54481465D01*
X46513995Y-54710273D01*
X46408686Y-54964510D01*
X46355000Y-55234408D01*
X46355000Y-55509592D01*
X46408686Y-55779490D01*
X46513995Y-56033727D01*
X46666880Y-56262535D01*
X46861465Y-56457120D01*
X47090273Y-56610005D01*
X47167515Y-56642000D01*
X47090273Y-56673995D01*
X46861465Y-56826880D01*
X46666880Y-57021465D01*
X46513995Y-57250273D01*
X46408686Y-57504510D01*
X46355000Y-57774408D01*
X46355000Y-58049592D01*
X46408686Y-58319490D01*
X46513995Y-58573727D01*
X46666880Y-58802535D01*
X46861465Y-58997120D01*
X47090273Y-59150005D01*
X47167515Y-59182000D01*
X47090273Y-59213995D01*
X46861465Y-59366880D01*
X46666880Y-59561465D01*
X46513995Y-59790273D01*
X46408686Y-60044510D01*
X46355000Y-60314408D01*
X46355000Y-60589592D01*
X46408686Y-60859490D01*
X46513995Y-61113727D01*
X46666880Y-61342535D01*
X46861465Y-61537120D01*
X47090273Y-61690005D01*
X47167515Y-61722000D01*
X47090273Y-61753995D01*
X46861465Y-61906880D01*
X46666880Y-62101465D01*
X46513995Y-62330273D01*
X46408686Y-62584510D01*
X46355000Y-62854408D01*
X46355000Y-63129592D01*
X46408686Y-63399490D01*
X46513995Y-63653727D01*
X46666880Y-63882535D01*
X46861465Y-64077120D01*
X47090273Y-64230005D01*
X47167515Y-64262000D01*
X47090273Y-64293995D01*
X46861465Y-64446880D01*
X46666880Y-64641465D01*
X46513995Y-64870273D01*
X46408686Y-65124510D01*
X46355000Y-65394408D01*
X46355000Y-65669592D01*
X46408686Y-65939490D01*
X46513995Y-66193727D01*
X46666880Y-66422535D01*
X46861465Y-66617120D01*
X47090273Y-66770005D01*
X47344510Y-66875314D01*
X47614408Y-66929000D01*
X47889592Y-66929000D01*
X48159490Y-66875314D01*
X48413727Y-66770005D01*
X48642535Y-66617120D01*
X48837120Y-66422535D01*
X48990005Y-66193727D01*
X49016786Y-66129070D01*
X84751780Y-66129070D01*
X84789404Y-66253114D01*
X84905831Y-66500994D01*
X85068380Y-66721397D01*
X85270804Y-66905853D01*
X85505325Y-67047274D01*
X85762929Y-67140225D01*
X85979000Y-67018470D01*
X85979000Y-65913000D01*
X86233000Y-65913000D01*
X86233000Y-67018470D01*
X86449071Y-67140225D01*
X86706675Y-67047274D01*
X86941196Y-66905853D01*
X87143620Y-66721397D01*
X87306169Y-66500994D01*
X87422596Y-66253114D01*
X87460220Y-66129070D01*
X87337720Y-65913000D01*
X86233000Y-65913000D01*
X85979000Y-65913000D01*
X84874280Y-65913000D01*
X84751780Y-66129070D01*
X49016786Y-66129070D01*
X49095314Y-65939490D01*
X49149000Y-65669592D01*
X49149000Y-65394408D01*
X49095314Y-65124510D01*
X48990005Y-64870273D01*
X48837120Y-64641465D01*
X48642535Y-64446880D01*
X48413727Y-64293995D01*
X48336485Y-64262000D01*
X48413727Y-64230005D01*
X48642535Y-64077120D01*
X48837120Y-63882535D01*
X48990005Y-63653727D01*
X49095314Y-63399490D01*
X49149000Y-63129592D01*
X49149000Y-63108408D01*
X84709000Y-63108408D01*
X84709000Y-63383592D01*
X84762686Y-63653490D01*
X84867995Y-63907727D01*
X85020880Y-64136535D01*
X85215465Y-64331120D01*
X85444273Y-64484005D01*
X85525236Y-64517541D01*
X85505325Y-64524726D01*
X85270804Y-64666147D01*
X85068380Y-64850603D01*
X84905831Y-65071006D01*
X84789404Y-65318886D01*
X84751780Y-65442930D01*
X84874280Y-65659000D01*
X85979000Y-65659000D01*
X85979000Y-65639000D01*
X86233000Y-65639000D01*
X86233000Y-65659000D01*
X87337720Y-65659000D01*
X87460220Y-65442930D01*
X87422596Y-65318886D01*
X87306169Y-65071006D01*
X87143620Y-64850603D01*
X86941196Y-64666147D01*
X86706675Y-64524726D01*
X86686764Y-64517541D01*
X86767727Y-64484005D01*
X86996535Y-64331120D01*
X87191120Y-64136535D01*
X87344005Y-63907727D01*
X87449314Y-63653490D01*
X87503000Y-63383592D01*
X87503000Y-63108408D01*
X87449314Y-62838510D01*
X87344005Y-62584273D01*
X87191120Y-62355465D01*
X86996535Y-62160880D01*
X86767727Y-62007995D01*
X86513490Y-61902686D01*
X86243592Y-61849000D01*
X85968408Y-61849000D01*
X85698510Y-61902686D01*
X85444273Y-62007995D01*
X85215465Y-62160880D01*
X85020880Y-62355465D01*
X84867995Y-62584273D01*
X84762686Y-62838510D01*
X84709000Y-63108408D01*
X49149000Y-63108408D01*
X49149000Y-62854408D01*
X49095314Y-62584510D01*
X48990005Y-62330273D01*
X48837120Y-62101465D01*
X48642535Y-61906880D01*
X48413727Y-61753995D01*
X48336485Y-61722000D01*
X48413727Y-61690005D01*
X48642535Y-61537120D01*
X48837120Y-61342535D01*
X48990005Y-61113727D01*
X49095314Y-60859490D01*
X49149000Y-60589592D01*
X49149000Y-60314408D01*
X49095314Y-60044510D01*
X48990005Y-59790273D01*
X48854891Y-59588061D01*
X65767000Y-59588061D01*
X65767000Y-59791939D01*
X65806774Y-59991898D01*
X65884795Y-60180256D01*
X65998063Y-60349774D01*
X66142226Y-60493937D01*
X66311744Y-60607205D01*
X66500102Y-60685226D01*
X66700061Y-60725000D01*
X66817026Y-60725000D01*
X66822774Y-60753898D01*
X66900795Y-60942256D01*
X67014063Y-61111774D01*
X67158226Y-61255937D01*
X67327744Y-61369205D01*
X67516102Y-61447226D01*
X67716061Y-61487000D01*
X67919939Y-61487000D01*
X68119898Y-61447226D01*
X68308256Y-61369205D01*
X68477774Y-61255937D01*
X68521711Y-61212000D01*
X69951319Y-61212000D01*
X69995256Y-61255937D01*
X70164774Y-61369205D01*
X70353132Y-61447226D01*
X70553091Y-61487000D01*
X70756969Y-61487000D01*
X70956928Y-61447226D01*
X71145286Y-61369205D01*
X71314804Y-61255937D01*
X71458967Y-61111774D01*
X71572235Y-60942256D01*
X71650256Y-60753898D01*
X71653910Y-60735526D01*
X85240079Y-60735526D01*
X85320618Y-60987052D01*
X85588751Y-61115350D01*
X85876762Y-61188873D01*
X86173582Y-61204795D01*
X86467805Y-61162504D01*
X86748124Y-61063626D01*
X86891382Y-60987052D01*
X86971921Y-60735526D01*
X86106000Y-59869605D01*
X85240079Y-60735526D01*
X71653910Y-60735526D01*
X71690030Y-60553939D01*
X71690030Y-60350061D01*
X71650256Y-60150102D01*
X71572235Y-59961744D01*
X71458967Y-59792226D01*
X71424323Y-59757582D01*
X84591205Y-59757582D01*
X84633496Y-60051805D01*
X84732374Y-60332124D01*
X84808948Y-60475382D01*
X85060474Y-60555921D01*
X85926395Y-59690000D01*
X86285605Y-59690000D01*
X87151526Y-60555921D01*
X87403052Y-60475382D01*
X87531350Y-60207249D01*
X87604873Y-59919238D01*
X87620795Y-59622418D01*
X87578504Y-59328195D01*
X87479626Y-59047876D01*
X87403052Y-58904618D01*
X87151526Y-58824079D01*
X86285605Y-59690000D01*
X85926395Y-59690000D01*
X85060474Y-58824079D01*
X84808948Y-58904618D01*
X84680650Y-59172751D01*
X84607127Y-59460762D01*
X84591205Y-59757582D01*
X71424323Y-59757582D01*
X71314804Y-59648063D01*
X71187498Y-59563000D01*
X71314804Y-59477937D01*
X71458967Y-59333774D01*
X71572235Y-59164256D01*
X71650256Y-58975898D01*
X71690030Y-58775939D01*
X71690030Y-58572061D01*
X71650256Y-58372102D01*
X71572235Y-58183744D01*
X71458967Y-58014226D01*
X71314804Y-57870063D01*
X71145286Y-57756795D01*
X70956928Y-57678774D01*
X70756969Y-57639000D01*
X70553091Y-57639000D01*
X70353132Y-57678774D01*
X70164774Y-57756795D01*
X69995256Y-57870063D01*
X69851093Y-58014226D01*
X69737825Y-58183744D01*
X69659804Y-58372102D01*
X69620030Y-58572061D01*
X69620030Y-58634198D01*
X69324229Y-58930000D01*
X67505711Y-58930000D01*
X67461774Y-58886063D01*
X67292256Y-58772795D01*
X67103898Y-58694774D01*
X66903939Y-58655000D01*
X66700061Y-58655000D01*
X66500102Y-58694774D01*
X66311744Y-58772795D01*
X66142226Y-58886063D01*
X65998063Y-59030226D01*
X65884795Y-59199744D01*
X65806774Y-59388102D01*
X65767000Y-59588061D01*
X48854891Y-59588061D01*
X48837120Y-59561465D01*
X48642535Y-59366880D01*
X48413727Y-59213995D01*
X48336485Y-59182000D01*
X48413727Y-59150005D01*
X48642535Y-58997120D01*
X48837120Y-58802535D01*
X48990005Y-58573727D01*
X49095314Y-58319490D01*
X49149000Y-58049592D01*
X49149000Y-57774408D01*
X49095314Y-57504510D01*
X48990005Y-57250273D01*
X48837120Y-57021465D01*
X48642535Y-56826880D01*
X48413727Y-56673995D01*
X48336485Y-56642000D01*
X48413727Y-56610005D01*
X48642535Y-56457120D01*
X48837120Y-56262535D01*
X48990005Y-56033727D01*
X49095314Y-55779490D01*
X49149000Y-55509592D01*
X49149000Y-55234408D01*
X49095314Y-54964510D01*
X48990005Y-54710273D01*
X48837120Y-54481465D01*
X48642535Y-54286880D01*
X48413727Y-54133995D01*
X48336485Y-54102000D01*
X48413727Y-54070005D01*
X48642535Y-53917120D01*
X48837120Y-53722535D01*
X48990005Y-53493727D01*
X49095314Y-53239490D01*
X49149000Y-52969592D01*
X49149000Y-52694408D01*
X49133404Y-52616000D01*
X57829928Y-52616000D01*
X57842188Y-52740482D01*
X57878498Y-52860180D01*
X57937463Y-52970494D01*
X58016815Y-53067185D01*
X58113506Y-53146537D01*
X58223820Y-53205502D01*
X58343518Y-53241812D01*
X58468000Y-53254072D01*
X59182250Y-53251000D01*
X59341000Y-53092250D01*
X59341000Y-51943000D01*
X59595000Y-51943000D01*
X59595000Y-53092250D01*
X59753750Y-53251000D01*
X60468000Y-53254072D01*
X60592482Y-53241812D01*
X60712180Y-53205502D01*
X60822494Y-53146537D01*
X60919185Y-53067185D01*
X60998537Y-52970494D01*
X61057502Y-52860180D01*
X61093812Y-52740482D01*
X61106072Y-52616000D01*
X61103000Y-52101750D01*
X60944250Y-51943000D01*
X59595000Y-51943000D01*
X59341000Y-51943000D01*
X57991750Y-51943000D01*
X57833000Y-52101750D01*
X57829928Y-52616000D01*
X49133404Y-52616000D01*
X49095314Y-52424510D01*
X48990005Y-52170273D01*
X48837120Y-51941465D01*
X48642535Y-51746880D01*
X48413727Y-51593995D01*
X48159490Y-51488686D01*
X47889592Y-51435000D01*
X47614408Y-51435000D01*
X47344510Y-51488686D01*
X47090273Y-51593995D01*
X46861465Y-51746880D01*
X46666880Y-51941465D01*
X46513995Y-52170273D01*
X46408686Y-52424510D01*
X46355000Y-52694408D01*
X42570000Y-52694408D01*
X42570000Y-51672216D01*
X42590702Y-51703199D01*
X42926803Y-52039300D01*
X43322017Y-52303373D01*
X43761155Y-52485270D01*
X44227341Y-52578001D01*
X44702661Y-52578001D01*
X45168847Y-52485270D01*
X45607985Y-52303373D01*
X46003199Y-52039300D01*
X46339300Y-51703199D01*
X46603373Y-51307985D01*
X46785270Y-50868847D01*
X46878001Y-50402661D01*
X46878001Y-49927341D01*
X46785270Y-49461155D01*
X46603373Y-49022017D01*
X46339300Y-48626803D01*
X46003199Y-48290702D01*
X45994665Y-48285000D01*
X57054342Y-48285000D01*
X56983991Y-48454842D01*
%TA.AperFunction,Conductor*%
D17*
G36*
X56983991Y-48454842D02*
G01*
X56926001Y-48746378D01*
X56926001Y-49043624D01*
X56983991Y-49335160D01*
X57097743Y-49609780D01*
X57262884Y-49856932D01*
X57473070Y-50067118D01*
X57720222Y-50232259D01*
X57994842Y-50346011D01*
X58286378Y-50404001D01*
X58297983Y-50404001D01*
X58223820Y-50426498D01*
X58113506Y-50485463D01*
X58016815Y-50564815D01*
X57937463Y-50661506D01*
X57878498Y-50771820D01*
X57842188Y-50891518D01*
X57829928Y-51016000D01*
X57833000Y-51530250D01*
X57991750Y-51689000D01*
X59341000Y-51689000D01*
X59341000Y-50539750D01*
X59595000Y-50539750D01*
X59595000Y-51689000D01*
X60944250Y-51689000D01*
X61103000Y-51530250D01*
X61106072Y-51016000D01*
X61093812Y-50891518D01*
X61057502Y-50771820D01*
X60998537Y-50661506D01*
X60919185Y-50564815D01*
X60822494Y-50485463D01*
X60712180Y-50426498D01*
X60592482Y-50390188D01*
X60468000Y-50377928D01*
X59753750Y-50381000D01*
X59595000Y-50539750D01*
X59341000Y-50539750D01*
X59182250Y-50381000D01*
X58709481Y-50378967D01*
X58875160Y-50346011D01*
X59149780Y-50232259D01*
X59396932Y-50067118D01*
X59607118Y-49856932D01*
X59705001Y-49710439D01*
X59802884Y-49856932D01*
X60013070Y-50067118D01*
X60260222Y-50232259D01*
X60534842Y-50346011D01*
X60826378Y-50404001D01*
X61123624Y-50404001D01*
X61415160Y-50346011D01*
X61689780Y-50232259D01*
X61936932Y-50067118D01*
X62147118Y-49856932D01*
X62245001Y-49710439D01*
X62342884Y-49856932D01*
X62553070Y-50067118D01*
X62772001Y-50213402D01*
X62772000Y-50377928D01*
X62468000Y-50377928D01*
X62343518Y-50390188D01*
X62223820Y-50426498D01*
X62113506Y-50485463D01*
X62016815Y-50564815D01*
X61937463Y-50661506D01*
X61878498Y-50771820D01*
X61842188Y-50891518D01*
X61829928Y-51016000D01*
X61829928Y-52616000D01*
X61842188Y-52740482D01*
X61878498Y-52860180D01*
X61937463Y-52970494D01*
X62016815Y-53067185D01*
X62113506Y-53146537D01*
X62223820Y-53205502D01*
X62343518Y-53241812D01*
X62468000Y-53254072D01*
X64468000Y-53254072D01*
X64592482Y-53241812D01*
X64712180Y-53205502D01*
X64822494Y-53146537D01*
X64919185Y-53067185D01*
X64998537Y-52970494D01*
X65057502Y-52860180D01*
X65093812Y-52740482D01*
X65106072Y-52616000D01*
X65106072Y-51052000D01*
X80965199Y-51052000D01*
X81769000Y-51855802D01*
X81769000Y-51917939D01*
X81808774Y-52117898D01*
X81886795Y-52306256D01*
X82000063Y-52475774D01*
X82144226Y-52619937D01*
X82313744Y-52733205D01*
X82502102Y-52811226D01*
X82702061Y-52851000D01*
X82905939Y-52851000D01*
X83105898Y-52811226D01*
X83294256Y-52733205D01*
X83463774Y-52619937D01*
X83607937Y-52475774D01*
X83721205Y-52306256D01*
X83799226Y-52117898D01*
X83838316Y-51921377D01*
X84597000Y-51921377D01*
X84597000Y-52218623D01*
X84654990Y-52510159D01*
X84768742Y-52784779D01*
X84933883Y-53031931D01*
X85144069Y-53242117D01*
X85290562Y-53340000D01*
X85144069Y-53437883D01*
X84933883Y-53648069D01*
X84768742Y-53895221D01*
X84654990Y-54169841D01*
X84597000Y-54461377D01*
X84597000Y-54758623D01*
X84654990Y-55050159D01*
X84768742Y-55324779D01*
X84933883Y-55571931D01*
X85144069Y-55782117D01*
X85290562Y-55880000D01*
X85144069Y-55977883D01*
X84933883Y-56188069D01*
X84768742Y-56435221D01*
X84654990Y-56709841D01*
X84597000Y-57001377D01*
X84597000Y-57298623D01*
X84654990Y-57590159D01*
X84768742Y-57864779D01*
X84933883Y-58111931D01*
X85144069Y-58322117D01*
X85308185Y-58431776D01*
X85240079Y-58644474D01*
X86106000Y-59510395D01*
X86971921Y-58644474D01*
X86903815Y-58431776D01*
X87067931Y-58322117D01*
X87278117Y-58111931D01*
X87443258Y-57864779D01*
X87557010Y-57590159D01*
X87615000Y-57298623D01*
X87615000Y-57001377D01*
X87557010Y-56709841D01*
X87443258Y-56435221D01*
X87278117Y-56188069D01*
X87067931Y-55977883D01*
X86921438Y-55880000D01*
X87067931Y-55782117D01*
X87278117Y-55571931D01*
X87443258Y-55324779D01*
X87557010Y-55050159D01*
X87615000Y-54758623D01*
X87615000Y-54461377D01*
X87557010Y-54169841D01*
X87443258Y-53895221D01*
X87278117Y-53648069D01*
X87067931Y-53437883D01*
X86921438Y-53340000D01*
X87067931Y-53242117D01*
X87278117Y-53031931D01*
X87443258Y-52784779D01*
X87557010Y-52510159D01*
X87615000Y-52218623D01*
X87615000Y-51921377D01*
X87557010Y-51629841D01*
X87443258Y-51355221D01*
X87278117Y-51108069D01*
X87067931Y-50897883D01*
X86820779Y-50732742D01*
X86546159Y-50618990D01*
X86254623Y-50561000D01*
X85957377Y-50561000D01*
X85665841Y-50618990D01*
X85391221Y-50732742D01*
X85144069Y-50897883D01*
X84933883Y-51108069D01*
X84768742Y-51355221D01*
X84654990Y-51629841D01*
X84597000Y-51921377D01*
X83838316Y-51921377D01*
X83839000Y-51917939D01*
X83839000Y-51714061D01*
X83799226Y-51514102D01*
X83721205Y-51325744D01*
X83607937Y-51156226D01*
X83463774Y-51012063D01*
X83294256Y-50898795D01*
X83105898Y-50820774D01*
X82905939Y-50781000D01*
X82843802Y-50781000D01*
X82180793Y-50117992D01*
X82256932Y-50067118D01*
X82467118Y-49856932D01*
X82565001Y-49710439D01*
X82662884Y-49856932D01*
X82873070Y-50067118D01*
X83120222Y-50232259D01*
X83394842Y-50346011D01*
X83686378Y-50404001D01*
X83983624Y-50404001D01*
X84275160Y-50346011D01*
X84549780Y-50232259D01*
X84796932Y-50067118D01*
X85007118Y-49856932D01*
X85105001Y-49710439D01*
X85202884Y-49856932D01*
X85413070Y-50067118D01*
X85660222Y-50232259D01*
X85934842Y-50346011D01*
X86226378Y-50404001D01*
X86523624Y-50404001D01*
X86815160Y-50346011D01*
X87089780Y-50232259D01*
X87336932Y-50067118D01*
X87547118Y-49856932D01*
X87712259Y-49609780D01*
X87826011Y-49335160D01*
X87884001Y-49043624D01*
X87884001Y-48746378D01*
X87826011Y-48454842D01*
X87755660Y-48285000D01*
X88655337Y-48285000D01*
X88646803Y-48290702D01*
X88310702Y-48626803D01*
X88046629Y-49022017D01*
X87864732Y-49461155D01*
X87772001Y-49927341D01*
X87772001Y-50402661D01*
X87864732Y-50868847D01*
X88046629Y-51307985D01*
X88310702Y-51703199D01*
X88646803Y-52039300D01*
X89042017Y-52303373D01*
X89481155Y-52485270D01*
X89947341Y-52578001D01*
X90422661Y-52578001D01*
X90888847Y-52485270D01*
X91327985Y-52303373D01*
X91723199Y-52039300D01*
X92050001Y-51712498D01*
X92050000Y-66397503D01*
X91723199Y-66070702D01*
X91327985Y-65806629D01*
X90888847Y-65624732D01*
X90422661Y-65532001D01*
X89947341Y-65532001D01*
X89481155Y-65624732D01*
X89042017Y-65806629D01*
X88646803Y-66070702D01*
X88310702Y-66406803D01*
X88046629Y-66802017D01*
X87864732Y-67241155D01*
X87772001Y-67707341D01*
X87772001Y-68182661D01*
X87864732Y-68648847D01*
X88046629Y-69087985D01*
X88310702Y-69483199D01*
X88646803Y-69819300D01*
X88655334Y-69825000D01*
X87755661Y-69825000D01*
X87826011Y-69655160D01*
X87884001Y-69363624D01*
X87884001Y-69066378D01*
X87826011Y-68774842D01*
X87712259Y-68500222D01*
X87547118Y-68253070D01*
X87336932Y-68042884D01*
X87089780Y-67877743D01*
X86815160Y-67763991D01*
X86523624Y-67706001D01*
X86226378Y-67706001D01*
X85934842Y-67763991D01*
X85660222Y-67877743D01*
X85413070Y-68042884D01*
X85202884Y-68253070D01*
X85105001Y-68399563D01*
X85007118Y-68253070D01*
X84796932Y-68042884D01*
X84549780Y-67877743D01*
X84275160Y-67763991D01*
X83983624Y-67706001D01*
X83686378Y-67706001D01*
X83394842Y-67763991D01*
X83120222Y-67877743D01*
X82873070Y-68042884D01*
X82662884Y-68253070D01*
X82565001Y-68399563D01*
X82467118Y-68253070D01*
X82256932Y-68042884D01*
X82009780Y-67877743D01*
X81735160Y-67763991D01*
X81443624Y-67706001D01*
X81146378Y-67706001D01*
X80854842Y-67763991D01*
X80580222Y-67877743D01*
X80333070Y-68042884D01*
X80122884Y-68253070D01*
X80025001Y-68399563D01*
X79927118Y-68253070D01*
X79716932Y-68042884D01*
X79469780Y-67877743D01*
X79195160Y-67763991D01*
X78903624Y-67706001D01*
X78606378Y-67706001D01*
X78314842Y-67763991D01*
X78040222Y-67877743D01*
X77793070Y-68042884D01*
X77582884Y-68253070D01*
X77485001Y-68399563D01*
X77387118Y-68253070D01*
X77176932Y-68042884D01*
X76929780Y-67877743D01*
X76655160Y-67763991D01*
X76363624Y-67706001D01*
X76066378Y-67706001D01*
X75774842Y-67763991D01*
X75500222Y-67877743D01*
X75253070Y-68042884D01*
X75042884Y-68253070D01*
X74945001Y-68399563D01*
X74847118Y-68253070D01*
X74636932Y-68042884D01*
X74389780Y-67877743D01*
X74115160Y-67763991D01*
X73823624Y-67706001D01*
X73526378Y-67706001D01*
X73234842Y-67763991D01*
X72960222Y-67877743D01*
X72713070Y-68042884D01*
X72502884Y-68253070D01*
X72405001Y-68399563D01*
X72307118Y-68253070D01*
X72096932Y-68042884D01*
X71849780Y-67877743D01*
X71575160Y-67763991D01*
X71283624Y-67706001D01*
X70986378Y-67706001D01*
X70694842Y-67763991D01*
X70420222Y-67877743D01*
X70173070Y-68042884D01*
X69962884Y-68253070D01*
X69865001Y-68399563D01*
X69767118Y-68253070D01*
X69556932Y-68042884D01*
X69309780Y-67877743D01*
X69035160Y-67763991D01*
X68743624Y-67706001D01*
X68446378Y-67706001D01*
X68154842Y-67763991D01*
X67880222Y-67877743D01*
X67633070Y-68042884D01*
X67422884Y-68253070D01*
X67325001Y-68399563D01*
X67227118Y-68253070D01*
X67016932Y-68042884D01*
X66769780Y-67877743D01*
X66495160Y-67763991D01*
X66203624Y-67706001D01*
X65906378Y-67706001D01*
X65614842Y-67763991D01*
X65340222Y-67877743D01*
X65093070Y-68042884D01*
X64882884Y-68253070D01*
X64785001Y-68399563D01*
X64687118Y-68253070D01*
X64476932Y-68042884D01*
X64229780Y-67877743D01*
X63955160Y-67763991D01*
X63663624Y-67706001D01*
X63366378Y-67706001D01*
X63074842Y-67763991D01*
X62800222Y-67877743D01*
X62553070Y-68042884D01*
X62342884Y-68253070D01*
X62245001Y-68399563D01*
X62147118Y-68253070D01*
X61936932Y-68042884D01*
X61689780Y-67877743D01*
X61415160Y-67763991D01*
X61123624Y-67706001D01*
X60826378Y-67706001D01*
X60534842Y-67763991D01*
X60260222Y-67877743D01*
X60013070Y-68042884D01*
X59802884Y-68253070D01*
X59705001Y-68399563D01*
X59607118Y-68253070D01*
X59396932Y-68042884D01*
X59149780Y-67877743D01*
X58875160Y-67763991D01*
X58583624Y-67706001D01*
X58286378Y-67706001D01*
X57994842Y-67763991D01*
X57720222Y-67877743D01*
X57473070Y-68042884D01*
X57262884Y-68253070D01*
X57153225Y-68417186D01*
X56940527Y-68349080D01*
X56074606Y-69215001D01*
X56088749Y-69229144D01*
X55909144Y-69408749D01*
X55895001Y-69394606D01*
X55880859Y-69408749D01*
X55701254Y-69229144D01*
X55715396Y-69215001D01*
X54849475Y-68349080D01*
X54636777Y-68417186D01*
X54527118Y-68253070D01*
X54443523Y-68169475D01*
X55029080Y-68169475D01*
X55895001Y-69035396D01*
X56760922Y-68169475D01*
X56680383Y-67917949D01*
X56412250Y-67789651D01*
X56124239Y-67716128D01*
X55827419Y-67700206D01*
X55533196Y-67742497D01*
X55252877Y-67841375D01*
X55109619Y-67917949D01*
X55029080Y-68169475D01*
X54443523Y-68169475D01*
X54316932Y-68042884D01*
X54069780Y-67877743D01*
X53795160Y-67763991D01*
X53503624Y-67706001D01*
X53206378Y-67706001D01*
X52914842Y-67763991D01*
X52640222Y-67877743D01*
X52393070Y-68042884D01*
X52182884Y-68253070D01*
X52085001Y-68399563D01*
X51987118Y-68253070D01*
X51776932Y-68042884D01*
X51529780Y-67877743D01*
X51255160Y-67763991D01*
X50963624Y-67706001D01*
X50666378Y-67706001D01*
X50374842Y-67763991D01*
X50100222Y-67877743D01*
X49853070Y-68042884D01*
X49642884Y-68253070D01*
X49545001Y-68399563D01*
X49447118Y-68253070D01*
X49236932Y-68042884D01*
X48989780Y-67877743D01*
X48715160Y-67763991D01*
X48423624Y-67706001D01*
X48126378Y-67706001D01*
X47834842Y-67763991D01*
X47560222Y-67877743D01*
X47313070Y-68042884D01*
X47102884Y-68253070D01*
X46937743Y-68500222D01*
X46823991Y-68774842D01*
X46766001Y-69066378D01*
X46766001Y-69363624D01*
X46823991Y-69655160D01*
X46894341Y-69825000D01*
X45994668Y-69825000D01*
X46003199Y-69819300D01*
X46339300Y-69483199D01*
X46603373Y-69087985D01*
X46785270Y-68648847D01*
X46878001Y-68182661D01*
X46878001Y-67707341D01*
X46785270Y-67241155D01*
X46603373Y-66802017D01*
X46339300Y-66406803D01*
X46003199Y-66070702D01*
X45607985Y-65806629D01*
X45168847Y-65624732D01*
X44702661Y-65532001D01*
X44227341Y-65532001D01*
X43761155Y-65624732D01*
X43322017Y-65806629D01*
X42926803Y-66070702D01*
X42590702Y-66406803D01*
X42570000Y-66437786D01*
X42570000Y-52694408D01*
X46355000Y-52694408D01*
X46355000Y-52969592D01*
X46408686Y-53239490D01*
X46513995Y-53493727D01*
X46666880Y-53722535D01*
X46861465Y-53917120D01*
X47090273Y-54070005D01*
X47167515Y-54102000D01*
X47090273Y-54133995D01*
X46861465Y-54286880D01*
X46666880Y-54481465D01*
X46513995Y-54710273D01*
X46408686Y-54964510D01*
X46355000Y-55234408D01*
X46355000Y-55509592D01*
X46408686Y-55779490D01*
X46513995Y-56033727D01*
X46666880Y-56262535D01*
X46861465Y-56457120D01*
X47090273Y-56610005D01*
X47167515Y-56642000D01*
X47090273Y-56673995D01*
X46861465Y-56826880D01*
X46666880Y-57021465D01*
X46513995Y-57250273D01*
X46408686Y-57504510D01*
X46355000Y-57774408D01*
X46355000Y-58049592D01*
X46408686Y-58319490D01*
X46513995Y-58573727D01*
X46666880Y-58802535D01*
X46861465Y-58997120D01*
X47090273Y-59150005D01*
X47167515Y-59182000D01*
X47090273Y-59213995D01*
X46861465Y-59366880D01*
X46666880Y-59561465D01*
X46513995Y-59790273D01*
X46408686Y-60044510D01*
X46355000Y-60314408D01*
X46355000Y-60589592D01*
X46408686Y-60859490D01*
X46513995Y-61113727D01*
X46666880Y-61342535D01*
X46861465Y-61537120D01*
X47090273Y-61690005D01*
X47167515Y-61722000D01*
X47090273Y-61753995D01*
X46861465Y-61906880D01*
X46666880Y-62101465D01*
X46513995Y-62330273D01*
X46408686Y-62584510D01*
X46355000Y-62854408D01*
X46355000Y-63129592D01*
X46408686Y-63399490D01*
X46513995Y-63653727D01*
X46666880Y-63882535D01*
X46861465Y-64077120D01*
X47090273Y-64230005D01*
X47167515Y-64262000D01*
X47090273Y-64293995D01*
X46861465Y-64446880D01*
X46666880Y-64641465D01*
X46513995Y-64870273D01*
X46408686Y-65124510D01*
X46355000Y-65394408D01*
X46355000Y-65669592D01*
X46408686Y-65939490D01*
X46513995Y-66193727D01*
X46666880Y-66422535D01*
X46861465Y-66617120D01*
X47090273Y-66770005D01*
X47344510Y-66875314D01*
X47614408Y-66929000D01*
X47889592Y-66929000D01*
X48159490Y-66875314D01*
X48413727Y-66770005D01*
X48642535Y-66617120D01*
X48837120Y-66422535D01*
X48990005Y-66193727D01*
X49016786Y-66129070D01*
X84751780Y-66129070D01*
X84789404Y-66253114D01*
X84905831Y-66500994D01*
X85068380Y-66721397D01*
X85270804Y-66905853D01*
X85505325Y-67047274D01*
X85762929Y-67140225D01*
X85979000Y-67018470D01*
X85979000Y-65913000D01*
X86233000Y-65913000D01*
X86233000Y-67018470D01*
X86449071Y-67140225D01*
X86706675Y-67047274D01*
X86941196Y-66905853D01*
X87143620Y-66721397D01*
X87306169Y-66500994D01*
X87422596Y-66253114D01*
X87460220Y-66129070D01*
X87337720Y-65913000D01*
X86233000Y-65913000D01*
X85979000Y-65913000D01*
X84874280Y-65913000D01*
X84751780Y-66129070D01*
X49016786Y-66129070D01*
X49095314Y-65939490D01*
X49149000Y-65669592D01*
X49149000Y-65394408D01*
X49095314Y-65124510D01*
X48990005Y-64870273D01*
X48837120Y-64641465D01*
X48642535Y-64446880D01*
X48413727Y-64293995D01*
X48336485Y-64262000D01*
X48413727Y-64230005D01*
X48642535Y-64077120D01*
X48837120Y-63882535D01*
X48990005Y-63653727D01*
X49095314Y-63399490D01*
X49149000Y-63129592D01*
X49149000Y-63108408D01*
X84709000Y-63108408D01*
X84709000Y-63383592D01*
X84762686Y-63653490D01*
X84867995Y-63907727D01*
X85020880Y-64136535D01*
X85215465Y-64331120D01*
X85444273Y-64484005D01*
X85525236Y-64517541D01*
X85505325Y-64524726D01*
X85270804Y-64666147D01*
X85068380Y-64850603D01*
X84905831Y-65071006D01*
X84789404Y-65318886D01*
X84751780Y-65442930D01*
X84874280Y-65659000D01*
X85979000Y-65659000D01*
X85979000Y-65639000D01*
X86233000Y-65639000D01*
X86233000Y-65659000D01*
X87337720Y-65659000D01*
X87460220Y-65442930D01*
X87422596Y-65318886D01*
X87306169Y-65071006D01*
X87143620Y-64850603D01*
X86941196Y-64666147D01*
X86706675Y-64524726D01*
X86686764Y-64517541D01*
X86767727Y-64484005D01*
X86996535Y-64331120D01*
X87191120Y-64136535D01*
X87344005Y-63907727D01*
X87449314Y-63653490D01*
X87503000Y-63383592D01*
X87503000Y-63108408D01*
X87449314Y-62838510D01*
X87344005Y-62584273D01*
X87191120Y-62355465D01*
X86996535Y-62160880D01*
X86767727Y-62007995D01*
X86513490Y-61902686D01*
X86243592Y-61849000D01*
X85968408Y-61849000D01*
X85698510Y-61902686D01*
X85444273Y-62007995D01*
X85215465Y-62160880D01*
X85020880Y-62355465D01*
X84867995Y-62584273D01*
X84762686Y-62838510D01*
X84709000Y-63108408D01*
X49149000Y-63108408D01*
X49149000Y-62854408D01*
X49095314Y-62584510D01*
X48990005Y-62330273D01*
X48837120Y-62101465D01*
X48642535Y-61906880D01*
X48413727Y-61753995D01*
X48336485Y-61722000D01*
X48413727Y-61690005D01*
X48642535Y-61537120D01*
X48837120Y-61342535D01*
X48990005Y-61113727D01*
X49095314Y-60859490D01*
X49149000Y-60589592D01*
X49149000Y-60314408D01*
X49095314Y-60044510D01*
X48990005Y-59790273D01*
X48854891Y-59588061D01*
X65767000Y-59588061D01*
X65767000Y-59791939D01*
X65806774Y-59991898D01*
X65884795Y-60180256D01*
X65998063Y-60349774D01*
X66142226Y-60493937D01*
X66311744Y-60607205D01*
X66500102Y-60685226D01*
X66700061Y-60725000D01*
X66817026Y-60725000D01*
X66822774Y-60753898D01*
X66900795Y-60942256D01*
X67014063Y-61111774D01*
X67158226Y-61255937D01*
X67327744Y-61369205D01*
X67516102Y-61447226D01*
X67716061Y-61487000D01*
X67919939Y-61487000D01*
X68119898Y-61447226D01*
X68308256Y-61369205D01*
X68477774Y-61255937D01*
X68521711Y-61212000D01*
X69951319Y-61212000D01*
X69995256Y-61255937D01*
X70164774Y-61369205D01*
X70353132Y-61447226D01*
X70553091Y-61487000D01*
X70756969Y-61487000D01*
X70956928Y-61447226D01*
X71145286Y-61369205D01*
X71314804Y-61255937D01*
X71458967Y-61111774D01*
X71572235Y-60942256D01*
X71650256Y-60753898D01*
X71653910Y-60735526D01*
X85240079Y-60735526D01*
X85320618Y-60987052D01*
X85588751Y-61115350D01*
X85876762Y-61188873D01*
X86173582Y-61204795D01*
X86467805Y-61162504D01*
X86748124Y-61063626D01*
X86891382Y-60987052D01*
X86971921Y-60735526D01*
X86106000Y-59869605D01*
X85240079Y-60735526D01*
X71653910Y-60735526D01*
X71690030Y-60553939D01*
X71690030Y-60350061D01*
X71650256Y-60150102D01*
X71572235Y-59961744D01*
X71458967Y-59792226D01*
X71424323Y-59757582D01*
X84591205Y-59757582D01*
X84633496Y-60051805D01*
X84732374Y-60332124D01*
X84808948Y-60475382D01*
X85060474Y-60555921D01*
X85926395Y-59690000D01*
X86285605Y-59690000D01*
X87151526Y-60555921D01*
X87403052Y-60475382D01*
X87531350Y-60207249D01*
X87604873Y-59919238D01*
X87620795Y-59622418D01*
X87578504Y-59328195D01*
X87479626Y-59047876D01*
X87403052Y-58904618D01*
X87151526Y-58824079D01*
X86285605Y-59690000D01*
X85926395Y-59690000D01*
X85060474Y-58824079D01*
X84808948Y-58904618D01*
X84680650Y-59172751D01*
X84607127Y-59460762D01*
X84591205Y-59757582D01*
X71424323Y-59757582D01*
X71314804Y-59648063D01*
X71187498Y-59563000D01*
X71314804Y-59477937D01*
X71458967Y-59333774D01*
X71572235Y-59164256D01*
X71650256Y-58975898D01*
X71690030Y-58775939D01*
X71690030Y-58572061D01*
X71650256Y-58372102D01*
X71572235Y-58183744D01*
X71458967Y-58014226D01*
X71314804Y-57870063D01*
X71145286Y-57756795D01*
X70956928Y-57678774D01*
X70756969Y-57639000D01*
X70553091Y-57639000D01*
X70353132Y-57678774D01*
X70164774Y-57756795D01*
X69995256Y-57870063D01*
X69851093Y-58014226D01*
X69737825Y-58183744D01*
X69659804Y-58372102D01*
X69620030Y-58572061D01*
X69620030Y-58634198D01*
X69324229Y-58930000D01*
X67505711Y-58930000D01*
X67461774Y-58886063D01*
X67292256Y-58772795D01*
X67103898Y-58694774D01*
X66903939Y-58655000D01*
X66700061Y-58655000D01*
X66500102Y-58694774D01*
X66311744Y-58772795D01*
X66142226Y-58886063D01*
X65998063Y-59030226D01*
X65884795Y-59199744D01*
X65806774Y-59388102D01*
X65767000Y-59588061D01*
X48854891Y-59588061D01*
X48837120Y-59561465D01*
X48642535Y-59366880D01*
X48413727Y-59213995D01*
X48336485Y-59182000D01*
X48413727Y-59150005D01*
X48642535Y-58997120D01*
X48837120Y-58802535D01*
X48990005Y-58573727D01*
X49095314Y-58319490D01*
X49149000Y-58049592D01*
X49149000Y-57774408D01*
X49095314Y-57504510D01*
X48990005Y-57250273D01*
X48837120Y-57021465D01*
X48642535Y-56826880D01*
X48413727Y-56673995D01*
X48336485Y-56642000D01*
X48413727Y-56610005D01*
X48642535Y-56457120D01*
X48837120Y-56262535D01*
X48990005Y-56033727D01*
X49095314Y-55779490D01*
X49149000Y-55509592D01*
X49149000Y-55234408D01*
X49095314Y-54964510D01*
X48990005Y-54710273D01*
X48837120Y-54481465D01*
X48642535Y-54286880D01*
X48413727Y-54133995D01*
X48336485Y-54102000D01*
X48413727Y-54070005D01*
X48642535Y-53917120D01*
X48837120Y-53722535D01*
X48990005Y-53493727D01*
X49095314Y-53239490D01*
X49149000Y-52969592D01*
X49149000Y-52694408D01*
X49133404Y-52616000D01*
X57829928Y-52616000D01*
X57842188Y-52740482D01*
X57878498Y-52860180D01*
X57937463Y-52970494D01*
X58016815Y-53067185D01*
X58113506Y-53146537D01*
X58223820Y-53205502D01*
X58343518Y-53241812D01*
X58468000Y-53254072D01*
X59182250Y-53251000D01*
X59341000Y-53092250D01*
X59341000Y-51943000D01*
X59595000Y-51943000D01*
X59595000Y-53092250D01*
X59753750Y-53251000D01*
X60468000Y-53254072D01*
X60592482Y-53241812D01*
X60712180Y-53205502D01*
X60822494Y-53146537D01*
X60919185Y-53067185D01*
X60998537Y-52970494D01*
X61057502Y-52860180D01*
X61093812Y-52740482D01*
X61106072Y-52616000D01*
X61103000Y-52101750D01*
X60944250Y-51943000D01*
X59595000Y-51943000D01*
X59341000Y-51943000D01*
X57991750Y-51943000D01*
X57833000Y-52101750D01*
X57829928Y-52616000D01*
X49133404Y-52616000D01*
X49095314Y-52424510D01*
X48990005Y-52170273D01*
X48837120Y-51941465D01*
X48642535Y-51746880D01*
X48413727Y-51593995D01*
X48159490Y-51488686D01*
X47889592Y-51435000D01*
X47614408Y-51435000D01*
X47344510Y-51488686D01*
X47090273Y-51593995D01*
X46861465Y-51746880D01*
X46666880Y-51941465D01*
X46513995Y-52170273D01*
X46408686Y-52424510D01*
X46355000Y-52694408D01*
X42570000Y-52694408D01*
X42570000Y-51672216D01*
X42590702Y-51703199D01*
X42926803Y-52039300D01*
X43322017Y-52303373D01*
X43761155Y-52485270D01*
X44227341Y-52578001D01*
X44702661Y-52578001D01*
X45168847Y-52485270D01*
X45607985Y-52303373D01*
X46003199Y-52039300D01*
X46339300Y-51703199D01*
X46603373Y-51307985D01*
X46785270Y-50868847D01*
X46878001Y-50402661D01*
X46878001Y-49927341D01*
X46785270Y-49461155D01*
X46603373Y-49022017D01*
X46339300Y-48626803D01*
X46003199Y-48290702D01*
X45994665Y-48285000D01*
X57054342Y-48285000D01*
X56983991Y-48454842D01*
G37*
%TD.AperFunction*%
%TD*%
M02*
